<svg width="24" height="24" viewBox="0 0 24 24" fill="none" xmlns="http://www.w3.org/2000/svg">
<path d="M12 1.25C12.4142 1.25 12.75 1.58579 12.75 2V3C12.75 3.41421 12.4142 3.75 12 3.75C11.5858 3.75 11.25 3.41421 11.25 3V2C11.25 1.58579 11.5858 1.25 12 1.25Z" fill="#6D6B6B"/>
<path fill-rule="evenodd" clip-rule="evenodd" d="M6.25 12C6.25 8.82436 8.82436 6.25 12 6.25C15.1756 6.25 17.75 8.82436 17.75 12C17.75 15.1756 15.1756 17.75 12 17.75C8.82436 17.75 6.25 15.1756 6.25 12ZM12 7.75C9.65279 7.75 7.75 9.65279 7.75 12C7.75 14.3472 9.65279 16.25 12 16.25C14.3472 16.25 16.25 14.3472 16.25 12C16.25 9.65279 14.3472 7.75 12 7.75Z" fill="#6D6B6B"/>
<path d="M5.45929 4.39862C5.16639 4.10573 4.69152 4.10573 4.39863 4.39862C4.10573 4.69152 4.10573 5.16639 4.39863 5.45929L5.10573 6.16639C5.39863 6.45929 5.8735 6.45929 6.16639 6.16639C6.45929 5.8735 6.45929 5.39862 6.16639 5.10573L5.45929 4.39862Z" fill="#6D6B6B"/>
<path d="M22.75 12C22.75 12.4142 22.4142 12.75 22 12.75H21C20.5858 12.75 20.25 12.4142 20.25 12C20.25 11.5858 20.5858 11.25 21 11.25H22C22.4142 11.25 22.75 11.5858 22.75 12Z" fill="#6D6B6B"/>
<path d="M19.6015 5.45929C19.8944 5.16639 19.8944 4.69152 19.6015 4.39863C19.3086 4.10573 18.8337 4.10573 18.5408 4.39863L17.8337 5.10573C17.5408 5.39863 17.5408 5.8735 17.8337 6.16639C18.1266 6.45929 18.6015 6.45929 18.8944 6.16639L19.6015 5.45929Z" fill="#6D6B6B"/>
<path d="M12 20.25C12.4142 20.25 12.75 20.5858 12.75 21V22C12.75 22.4142 12.4142 22.75 12 22.75C11.5858 22.75 11.25 22.4142 11.25 22V21C11.25 20.5858 11.5858 20.25 12 20.25Z" fill="#6D6B6B"/>
<path d="M18.8943 17.8336C18.6014 17.5407 18.1266 17.5407 17.8337 17.8336C17.5408 18.1265 17.5408 18.6014 17.8337 18.8943L18.5408 19.6014C18.8337 19.8943 19.3085 19.8943 19.6014 19.6014C19.8943 19.3085 19.8943 18.8336 19.6014 18.5407L18.8943 17.8336Z" fill="#6D6B6B"/>
<path d="M3.75 12C3.75 12.4142 3.41421 12.75 3 12.75H2C1.58579 12.75 1.25 12.4142 1.25 12C1.25 11.5858 1.58579 11.25 2 11.25H3C3.41421 11.25 3.75 11.5858 3.75 12Z" fill="#6D6B6B"/>
<path d="M6.16639 18.8943C6.45928 18.6014 6.45928 18.1265 6.16639 17.8336C5.87349 17.5407 5.39862 17.5407 5.10573 17.8336L4.39862 18.5407C4.10573 18.8336 4.10573 19.3085 4.39862 19.6014C4.69151 19.8943 5.16639 19.8943 5.45928 19.6014L6.16639 18.8943Z" fill="#6D6B6B"/>
</svg>
