<svg width="65" height="65" viewBox="0 0 65 65" fill="none" xmlns="http://www.w3.org/2000/svg">
<path d="M34.5312 18.9583C34.5312 17.8365 33.6218 16.9271 32.5 16.9271C31.3782 16.9271 30.4687 17.8365 30.4687 18.9583V30.4687H18.9583C17.8365 30.4687 16.9271 31.3782 16.9271 32.5C16.9271 33.6218 17.8365 34.5312 18.9583 34.5312H30.4687V46.0417C30.4687 47.1635 31.3782 48.0729 32.5 48.0729C33.6218 48.0729 34.5312 47.1635 34.5312 46.0417V34.5312H46.0416C47.1634 34.5312 48.0729 33.6218 48.0729 32.5C48.0729 31.3782 47.1634 30.4687 46.0416 30.4687H34.5312V18.9583Z" fill="white"/>
</svg>
